<mxfile host="app.diagrams.net" modified="2024-01-15T08:21:08.204Z" agent="Mozilla/5.0 (Windows NT 10.0; Win64; x64) AppleWebKit/537.36 (KHTML, like Gecko) Chrome/120.0.0.0 Safari/537.36" etag="_83CCXSom0-szBT38gjI" version="22.1.18" type="device">
  <diagram name="Page-1" id="90a13364-a465-7bf4-72fc-28e22215d7a0">
    <mxGraphModel dx="834" dy="1640" grid="1" gridSize="10" guides="1" tooltips="1" connect="1" arrows="1" fold="1" page="1" pageScale="1.5" pageWidth="1169" pageHeight="826" background="none" math="0" shadow="0">
      <root>
        <mxCell id="0" style=";html=1;" />
        <mxCell id="1" style=";html=1;" parent="0" />
        <mxCell id="RZ2TbDUe3kEV52L6ba-B-2" value="AcademiX - Level 1" style="swimlane;" parent="1" vertex="1">
          <mxGeometry x="480" y="301" width="590" height="419" as="geometry">
            <mxRectangle x="480" y="300" width="150" height="30" as="alternateBounds" />
          </mxGeometry>
        </mxCell>
        <mxCell id="3a17f1ce550125da-9" value="Web Server" style="whiteSpace=wrap;html=1;shadow=1;fontSize=18;fillColor=#f5f5f5;strokeColor=#666666;" parent="RZ2TbDUe3kEV52L6ba-B-2" vertex="1">
          <mxGeometry x="15" y="104" width="120" height="60" as="geometry" />
        </mxCell>
        <mxCell id="RZ2TbDUe3kEV52L6ba-B-21" value="Timetable Service" style="whiteSpace=wrap;html=1;shadow=1;fontSize=18;fillColor=#f5f5f5;strokeColor=#666666;" parent="RZ2TbDUe3kEV52L6ba-B-2" vertex="1">
          <mxGeometry x="153.5" y="34" width="120" height="60" as="geometry" />
        </mxCell>
        <mxCell id="RZ2TbDUe3kEV52L6ba-B-24" value="Core Component" style="whiteSpace=wrap;html=1;shadow=1;fontSize=18;fillColor=#f5f5f5;strokeColor=#666666;" parent="RZ2TbDUe3kEV52L6ba-B-2" vertex="1">
          <mxGeometry x="282" y="234" width="120" height="60" as="geometry" />
        </mxCell>
        <mxCell id="RZ2TbDUe3kEV52L6ba-B-28" value="" style="endArrow=classic;startArrow=classic;html=1;entryX=0.547;entryY=1.016;entryDx=0;entryDy=0;exitX=0.414;exitY=0.017;exitDx=0;exitDy=0;dashed=1;dashPattern=8 8;exitPerimeter=0;entryPerimeter=0;" parent="RZ2TbDUe3kEV52L6ba-B-2" source="RZ2TbDUe3kEV52L6ba-B-24" target="RZ2TbDUe3kEV52L6ba-B-21" edge="1">
          <mxGeometry width="50" height="50" relative="1" as="geometry">
            <mxPoint x="272" y="244" as="sourcePoint" />
            <mxPoint x="322" y="194" as="targetPoint" />
          </mxGeometry>
        </mxCell>
        <mxCell id="RZ2TbDUe3kEV52L6ba-B-30" value="" style="endArrow=classic;startArrow=classic;html=1;entryX=0.589;entryY=1.006;entryDx=0;entryDy=0;exitX=0;exitY=0.5;exitDx=0;exitDy=0;dashed=1;dashPattern=8 8;entryPerimeter=0;" parent="RZ2TbDUe3kEV52L6ba-B-2" source="RZ2TbDUe3kEV52L6ba-B-24" target="3a17f1ce550125da-9" edge="1">
          <mxGeometry width="50" height="50" relative="1" as="geometry">
            <mxPoint x="235" y="244" as="sourcePoint" />
            <mxPoint x="285" y="194" as="targetPoint" />
          </mxGeometry>
        </mxCell>
        <mxCell id="uLcCqy0aWbzZ1KYHm2aa-17" style="rounded=0;orthogonalLoop=1;jettySize=auto;html=1;exitX=0.542;exitY=1.016;exitDx=0;exitDy=0;entryX=0;entryY=0;entryDx=0;entryDy=0;startArrow=classic;startFill=1;dashed=1;dashPattern=8 8;exitPerimeter=0;" edge="1" parent="RZ2TbDUe3kEV52L6ba-B-2" source="RZ2TbDUe3kEV52L6ba-B-31" target="uLcCqy0aWbzZ1KYHm2aa-3">
          <mxGeometry relative="1" as="geometry" />
        </mxCell>
        <mxCell id="RZ2TbDUe3kEV52L6ba-B-31" value="Course Service" style="whiteSpace=wrap;html=1;shadow=1;fontSize=18;fillColor=#f5f5f5;strokeColor=#666666;" parent="RZ2TbDUe3kEV52L6ba-B-2" vertex="1">
          <mxGeometry x="281.5" y="34" width="120" height="60" as="geometry" />
        </mxCell>
        <mxCell id="RZ2TbDUe3kEV52L6ba-B-32" value="" style="endArrow=classic;startArrow=classic;html=1;entryX=0.5;entryY=1;entryDx=0;entryDy=0;exitX=0.5;exitY=0;exitDx=0;exitDy=0;dashed=1;dashPattern=8 8;" parent="RZ2TbDUe3kEV52L6ba-B-2" source="RZ2TbDUe3kEV52L6ba-B-24" target="RZ2TbDUe3kEV52L6ba-B-31" edge="1">
          <mxGeometry width="50" height="50" relative="1" as="geometry">
            <mxPoint x="272" y="244" as="sourcePoint" />
            <mxPoint x="322" y="194" as="targetPoint" />
          </mxGeometry>
        </mxCell>
        <mxCell id="RZ2TbDUe3kEV52L6ba-B-33" value="Grade Service" style="whiteSpace=wrap;html=1;shadow=1;fontSize=18;fillColor=#f5f5f5;strokeColor=#666666;" parent="RZ2TbDUe3kEV52L6ba-B-2" vertex="1">
          <mxGeometry x="410.5" y="34" width="120" height="60" as="geometry" />
        </mxCell>
        <mxCell id="RZ2TbDUe3kEV52L6ba-B-34" value="" style="endArrow=classic;startArrow=classic;html=1;exitX=0.581;exitY=0.017;exitDx=0;exitDy=0;dashed=1;dashPattern=8 8;entryX=0.5;entryY=1;entryDx=0;entryDy=0;exitPerimeter=0;" parent="RZ2TbDUe3kEV52L6ba-B-2" source="RZ2TbDUe3kEV52L6ba-B-24" target="RZ2TbDUe3kEV52L6ba-B-33" edge="1">
          <mxGeometry width="50" height="50" relative="1" as="geometry">
            <mxPoint x="342" y="233" as="sourcePoint" />
            <mxPoint x="599" y="82" as="targetPoint" />
          </mxGeometry>
        </mxCell>
        <mxCell id="RZ2TbDUe3kEV52L6ba-B-35" value="Directory Server" style="whiteSpace=wrap;html=1;shadow=1;fontSize=18;fillColor=#f5f5f5;strokeColor=#666666;" parent="RZ2TbDUe3kEV52L6ba-B-2" vertex="1">
          <mxGeometry x="281.5" y="344" width="120" height="60" as="geometry" />
        </mxCell>
        <mxCell id="RZ2TbDUe3kEV52L6ba-B-37" value="" style="endArrow=classic;html=1;exitX=0.5;exitY=1;exitDx=0;exitDy=0;entryX=0.5;entryY=0;entryDx=0;entryDy=0;dashed=1;dashPattern=8 8;" parent="RZ2TbDUe3kEV52L6ba-B-2" source="RZ2TbDUe3kEV52L6ba-B-24" target="RZ2TbDUe3kEV52L6ba-B-35" edge="1">
          <mxGeometry width="50" height="50" relative="1" as="geometry">
            <mxPoint x="252" y="154" as="sourcePoint" />
            <mxPoint x="302" y="104" as="targetPoint" />
          </mxGeometry>
        </mxCell>
        <mxCell id="RZ2TbDUe3kEV52L6ba-B-38" value="" style="endArrow=classic;html=1;exitX=-0.012;exitY=0.377;exitDx=0;exitDy=0;entryX=0.5;entryY=1;entryDx=0;entryDy=0;dashed=1;dashPattern=8 8;startArrow=classic;startFill=1;exitPerimeter=0;" parent="RZ2TbDUe3kEV52L6ba-B-2" source="RZ2TbDUe3kEV52L6ba-B-35" target="3a17f1ce550125da-9" edge="1">
          <mxGeometry width="50" height="50" relative="1" as="geometry">
            <mxPoint x="252" y="154" as="sourcePoint" />
            <mxPoint x="302" y="104" as="targetPoint" />
          </mxGeometry>
        </mxCell>
        <mxCell id="uLcCqy0aWbzZ1KYHm2aa-12" style="rounded=0;orthogonalLoop=1;jettySize=auto;html=1;dashed=1;dashPattern=8 8;startArrow=classic;startFill=1;" edge="1" parent="RZ2TbDUe3kEV52L6ba-B-2" target="RZ2TbDUe3kEV52L6ba-B-24">
          <mxGeometry relative="1" as="geometry">
            <mxPoint x="452" y="219" as="sourcePoint" />
          </mxGeometry>
        </mxCell>
        <mxCell id="uLcCqy0aWbzZ1KYHm2aa-16" style="rounded=0;orthogonalLoop=1;jettySize=auto;html=1;dashed=1;dashPattern=8 8;startArrow=classic;startFill=1;exitX=-0.017;exitY=0.497;exitDx=0;exitDy=0;exitPerimeter=0;entryX=0.628;entryY=1.026;entryDx=0;entryDy=0;entryPerimeter=0;" edge="1" parent="RZ2TbDUe3kEV52L6ba-B-2" source="uLcCqy0aWbzZ1KYHm2aa-3" target="RZ2TbDUe3kEV52L6ba-B-21">
          <mxGeometry relative="1" as="geometry">
            <mxPoint x="222" y="95" as="targetPoint" />
          </mxGeometry>
        </mxCell>
        <mxCell id="uLcCqy0aWbzZ1KYHm2aa-18" style="rounded=0;orthogonalLoop=1;jettySize=auto;html=1;entryX=0.523;entryY=1.003;entryDx=0;entryDy=0;dashed=1;dashPattern=8 8;startArrow=classic;startFill=1;exitX=0.533;exitY=-0.016;exitDx=0;exitDy=0;exitPerimeter=0;entryPerimeter=0;" edge="1" parent="RZ2TbDUe3kEV52L6ba-B-2" source="uLcCqy0aWbzZ1KYHm2aa-3" target="RZ2TbDUe3kEV52L6ba-B-33">
          <mxGeometry relative="1" as="geometry" />
        </mxCell>
        <mxCell id="uLcCqy0aWbzZ1KYHm2aa-3" value="Database" style="whiteSpace=wrap;html=1;shadow=1;fontSize=18;fillColor=#f5f5f5;strokeColor=#666666;" vertex="1" parent="RZ2TbDUe3kEV52L6ba-B-2">
          <mxGeometry x="452" y="164" width="120" height="60" as="geometry" />
        </mxCell>
        <mxCell id="uLcCqy0aWbzZ1KYHm2aa-14" style="rounded=0;orthogonalLoop=1;jettySize=auto;html=1;entryX=0;entryY=1;entryDx=0;entryDy=0;dashed=1;dashPattern=8 8;startArrow=classic;startFill=1;" edge="1" parent="1" source="RZ2TbDUe3kEV52L6ba-B-13" target="3a17f1ce550125da-9">
          <mxGeometry relative="1" as="geometry">
            <mxPoint x="402" y="664" as="sourcePoint" />
          </mxGeometry>
        </mxCell>
        <mxCell id="RZ2TbDUe3kEV52L6ba-B-13" value="Administrator" style="shape=umlActor;verticalLabelPosition=bottom;verticalAlign=top;html=1;outlineConnect=0;" parent="1" vertex="1">
          <mxGeometry x="416" y="626" width="30" height="60" as="geometry" />
        </mxCell>
        <mxCell id="RZ2TbDUe3kEV52L6ba-B-14" value="Student" style="shape=umlActor;verticalLabelPosition=bottom;verticalAlign=top;html=1;outlineConnect=0;" parent="1" vertex="1">
          <mxGeometry x="416" y="405" width="30" height="60" as="geometry" />
        </mxCell>
        <mxCell id="RZ2TbDUe3kEV52L6ba-B-22" value="" style="endArrow=classic;startArrow=classic;html=1;entryX=0;entryY=0.5;entryDx=0;entryDy=0;dashed=1;dashPattern=8 8;" parent="1" target="3a17f1ce550125da-9" edge="1" source="RZ2TbDUe3kEV52L6ba-B-14">
          <mxGeometry width="50" height="50" relative="1" as="geometry">
            <mxPoint x="396" y="435" as="sourcePoint" />
            <mxPoint x="782" y="414" as="targetPoint" />
          </mxGeometry>
        </mxCell>
        <mxCell id="RZ2TbDUe3kEV52L6ba-B-25" value="Student Information System" style="whiteSpace=wrap;html=1;shadow=1;fontSize=18;fillColor=#f5f5f5;strokeColor=#666666;" parent="1" vertex="1">
          <mxGeometry x="1096" y="534" width="120" height="60" as="geometry" />
        </mxCell>
        <mxCell id="RZ2TbDUe3kEV52L6ba-B-26" value="Financial System" style="whiteSpace=wrap;html=1;shadow=1;fontSize=18;fillColor=#f5f5f5;strokeColor=#666666;" parent="1" vertex="1">
          <mxGeometry x="1096" y="614" width="120" height="60" as="geometry" />
        </mxCell>
        <mxCell id="RZ2TbDUe3kEV52L6ba-B-27" value="" style="endArrow=classic;html=1;entryX=1.006;entryY=0.62;entryDx=0;entryDy=0;exitX=0;exitY=0.5;exitDx=0;exitDy=0;dashed=1;dashPattern=8 8;startArrow=classic;startFill=1;entryPerimeter=0;" parent="1" source="RZ2TbDUe3kEV52L6ba-B-26" target="RZ2TbDUe3kEV52L6ba-B-24" edge="1">
          <mxGeometry width="50" height="50" relative="1" as="geometry">
            <mxPoint x="1102" y="654" as="sourcePoint" />
            <mxPoint x="1152" y="604" as="targetPoint" />
          </mxGeometry>
        </mxCell>
        <mxCell id="uLcCqy0aWbzZ1KYHm2aa-2" style="rounded=0;orthogonalLoop=1;jettySize=auto;html=1;entryX=0;entryY=0.5;entryDx=0;entryDy=0;dashed=1;dashPattern=8 8;startArrow=classic;startFill=1;" edge="1" parent="1" source="RZ2TbDUe3kEV52L6ba-B-24" target="RZ2TbDUe3kEV52L6ba-B-25">
          <mxGeometry relative="1" as="geometry" />
        </mxCell>
        <mxCell id="uLcCqy0aWbzZ1KYHm2aa-15" style="rounded=0;orthogonalLoop=1;jettySize=auto;html=1;startArrow=classic;startFill=1;dashed=1;dashPattern=8 8;exitX=-0.011;exitY=0.452;exitDx=0;exitDy=0;exitPerimeter=0;" edge="1" parent="1" source="RZ2TbDUe3kEV52L6ba-B-35" target="RZ2TbDUe3kEV52L6ba-B-13">
          <mxGeometry relative="1" as="geometry" />
        </mxCell>
      </root>
    </mxGraphModel>
  </diagram>
</mxfile>
